<svg width="26" height="15" viewBox="0 0 26 15" fill="none" xmlns="http://www.w3.org/2000/svg">
<path fill-rule="evenodd" clip-rule="evenodd" d="M7.83205 0.445284C8.1384 0.904813 8.01423 1.52568 7.5547 1.83203L2.80278 4.99998L7.5547 8.16793C8.01423 8.47429 8.1384 9.09516 7.83205 9.55468C7.5257 10.0142 6.90483 10.1384 6.4453 9.83203L0.4453 5.83203C0.167101 5.64657 0 5.33434 0 4.99998C0 4.66563 0.167101 4.3534 0.4453 4.16793L6.4453 0.167934C6.90483 -0.138418 7.5257 -0.0142447 7.83205 0.445284Z" fill="#566885"/>
<path fill-rule="evenodd" clip-rule="evenodd" d="M1 4.99997C1 4.44768 1.44772 3.99997 2 3.99997H18.905C23.0362 3.99997 26 8.1404 26 12.5937V14C26 14.5523 25.5523 15 25 15C24.4477 15 24 14.5523 24 14V12.5937C24 8.79657 21.5312 5.99997 18.905 5.99997H2C1.44772 5.99997 1 5.55225 1 4.99997Z" fill="#566885"/>
</svg>
