<svg width="32" height="32" viewBox="0 0 32 32" fill="none" xmlns="http://www.w3.org/2000/svg">
<path d="M15.2045 24.1691L7.3295 17.3602C6.89017 16.9803 6.89017 16.3644 7.3295 15.9846C7.76883 15.6047 8.48116 15.6047 8.92049 15.9846L14.875 21.133V5.97268C14.875 5.43548 15.3787 5 16 5C16.6213 5 17.125 5.43548 17.125 5.97268V21.133L23.0795 15.9846C23.5188 15.6047 24.2312 15.6047 24.6705 15.9846C25.1098 16.3644 25.1098 16.9803 24.6705 17.3602L16.7955 24.1691C16.7695 24.1915 16.7415 24.2133 16.7131 24.2335C16.7044 24.2397 16.6954 24.2453 16.6864 24.2509C16.6819 24.2538 16.6774 24.2566 16.6729 24.2595C16.6569 24.2698 16.6413 24.2805 16.6247 24.2902C16.6128 24.297 16.6006 24.3032 16.5884 24.3094C16.5841 24.3116 16.5798 24.3137 16.5756 24.3159C16.5709 24.3183 16.5663 24.3207 16.5617 24.3232C16.5514 24.3286 16.541 24.3341 16.5303 24.339C16.5176 24.3449 16.5048 24.35 16.4918 24.3552C16.4876 24.3569 16.4834 24.3586 16.4791 24.3603C16.475 24.362 16.4709 24.3637 16.4668 24.3655C16.4548 24.3705 16.4428 24.3754 16.4305 24.3799C16.4185 24.3841 16.4064 24.3878 16.3942 24.3915C16.3895 24.3929 16.3848 24.3943 16.38 24.3958C16.3623 24.4013 16.3448 24.4072 16.3266 24.412C16.3145 24.4151 16.3022 24.4177 16.2899 24.4203C16.2851 24.4213 16.2803 24.4223 16.2755 24.4233C16.2709 24.4243 16.2662 24.4254 16.2616 24.4264C16.2478 24.4295 16.234 24.4326 16.2198 24.4351C16.205 24.4376 16.1901 24.4394 16.1751 24.4411C16.1702 24.4417 16.1652 24.4423 16.1602 24.4429C16.1548 24.4436 16.1493 24.4443 16.1439 24.4451C16.133 24.4466 16.1221 24.4481 16.111 24.4491C16.0372 24.4554 15.9628 24.4554 15.889 24.4491C15.8782 24.4482 15.8677 24.4467 15.8572 24.4452C15.8514 24.4444 15.8456 24.4436 15.8398 24.4429C15.8348 24.4423 15.8298 24.4417 15.8249 24.4411C15.8099 24.4394 15.795 24.4376 15.7802 24.4351C15.766 24.4326 15.7522 24.4295 15.7384 24.4264C15.7338 24.4254 15.7291 24.4243 15.7245 24.4233C15.7198 24.4223 15.7151 24.4213 15.7105 24.4203C15.698 24.4178 15.6856 24.4152 15.6734 24.412C15.6598 24.4084 15.6466 24.4042 15.6333 24.4C15.6289 24.3986 15.6244 24.3972 15.62 24.3958C15.6158 24.3945 15.6116 24.3933 15.6074 24.392C15.5947 24.3882 15.582 24.3843 15.5695 24.3799C15.5572 24.3754 15.5452 24.3705 15.5332 24.3655C15.5291 24.3637 15.525 24.362 15.5209 24.3603C15.5037 24.3534 15.4865 24.3468 15.4697 24.339C15.4586 24.3339 15.4479 24.3283 15.4372 24.3226C15.4329 24.3204 15.4287 24.3181 15.4244 24.3159C15.4202 24.3137 15.4159 24.3116 15.4116 24.3094C15.3994 24.3032 15.3872 24.297 15.3753 24.2902C15.3629 24.283 15.351 24.2751 15.339 24.2673C15.3351 24.2647 15.3311 24.2621 15.3271 24.2595C15.3224 24.2564 15.3176 24.2535 15.3129 24.2505C15.3041 24.245 15.2954 24.2395 15.2869 24.2335C15.2585 24.2133 15.2305 24.1915 15.2045 24.1691Z" fill="black"/>
<path d="M8.12498 26.1762H23.875C24.4963 26.1762 25 26.5845 25 27.0881C25 27.5917 24.4963 28 23.875 28H8.12498C7.50367 28 7 27.5917 7 27.0881C7 26.5845 7.50367 26.1762 8.12498 26.1762Z" fill="black"/>
</svg>
