<svg width="32" height="32" viewBox="0 0 32 32" fill="none" xmlns="http://www.w3.org/2000/svg">
<path fill-rule="evenodd" clip-rule="evenodd" d="M13.819 5C8.94838 5 5 9.03239 5 14.0066C5 18.9808 8.94839 23.0132 13.819 23.0132C15.9334 23.0132 17.874 22.2533 19.3932 20.9863L25.459 26.7493C25.8296 27.1014 26.4097 27.08 26.7545 26.7015C27.0993 26.3229 27.0784 25.7306 26.7077 25.3784L20.6864 19.6577C21.9071 18.1124 22.6379 16.1467 22.6379 14.0066C22.6379 9.03239 18.6896 5 13.819 5ZM6.83333 14.0066C6.83333 10.0665 9.96091 6.87234 13.819 6.87234C17.677 6.87234 20.8046 10.0665 20.8046 14.0066C20.8046 17.9468 17.677 21.1409 13.819 21.1409C9.9609 21.1409 6.83333 17.9468 6.83333 14.0066Z" fill="black"/>
</svg>
