<svg width="16" height="18" viewBox="0 0 16 18" fill="none" xmlns="http://www.w3.org/2000/svg">
<path fill-rule="evenodd" clip-rule="evenodd" d="M4.58149 1C4.58149 0.585786 4.91728 0.25 5.33149 0.25H10.6685C11.0827 0.25 11.4185 0.585786 11.4185 1V1.48077H15C15.4142 1.48077 15.75 1.81656 15.75 2.23077V4.69231C15.75 5.10652 15.4142 5.44231 15 5.44231H14.4351V17C14.4351 17.4142 14.0993 17.75 13.6851 17.75H2.39227C1.97805 17.75 1.64227 17.4142 1.64227 17V5.44231H1C0.585786 5.44231 0.25 5.10652 0.25 4.69231V2.23077C0.25 1.81656 0.585786 1.48077 1 1.48077H4.58149V1ZM3.14227 5.44231V16.25H12.9351V5.44231H11.5732V14.6752C11.5732 15.0894 11.2374 15.4252 10.8232 15.4252C10.409 15.4252 10.0732 15.0894 10.0732 14.6752V5.44231H8.78867V14.6752C8.78867 15.0894 8.45289 15.4252 8.03867 15.4252C7.62446 15.4252 7.28867 15.0894 7.28867 14.6752V5.44231H5.96547V14.6752C5.96547 15.0894 5.62968 15.4252 5.21547 15.4252C4.80126 15.4252 4.46547 15.0894 4.46547 14.6752V5.44231H3.14227ZM14.25 3.94231H1.75V2.98077H14.25V3.94231Z" fill="#566885"/>
</svg>
